<svg width="24" height="24" viewBox="0 0 24 24" fill="none" xmlns="http://www.w3.org/2000/svg">
<g clip-path="url(#clip0_2_2829)">
<path d="M10.06 10C10.2167 9.55449 10.5261 9.17878 10.9333 8.93946C11.3405 8.70015 11.8193 8.61267 12.2848 8.69252C12.7503 8.77236 13.1725 9.01439 13.4767 9.37573C13.7809 9.73706 13.9474 10.1944 13.9467 10.6667C13.9467 12 11.9467 12.6667 11.9467 12.6667M12 15.3334H12.0067M18.6667 12C18.6667 15.6819 15.6819 18.6667 12 18.6667C8.3181 18.6667 5.33334 15.6819 5.33334 12C5.33334 8.31814 8.3181 5.33337 12 5.33337C15.6819 5.33337 18.6667 8.31814 18.6667 12Z" stroke="#98A2B3" stroke-width="1.33333" stroke-linecap="round" stroke-linejoin="round"/>
</g>
<defs>
<clipPath id="clip0_2_2829">
<rect width="16" height="16" fill="white" transform="translate(4 4)"/>
</clipPath>
</defs>
</svg>
